<?xml version="1.0" encoding="UTF-8"?>
<svg width="46px" height="46px" viewBox="0 0 46 46" version="1.1" xmlns="http://www.w3.org/2000/svg" xmlns:xlink="http://www.w3.org/1999/xlink">
    <!-- Generator: sketchtool 41.2 (35397) - http://www.bohemiancoding.com/sketch -->
    <title>92CAD5DC-E355-46A5-8DD2-1EE05CC8919A</title>
    <desc>Created with sketchtool.</desc>
    <defs></defs>
    <g id="Page-1" stroke="none" stroke-width="1" fill="none" fill-rule="evenodd" stroke-linecap="round" stroke-linejoin="round">
        <g id="5.1-Iconography" transform="translate(-639.000000, -308.000000)" stroke="#0060A8">
            <g id="Icons" transform="translate(496.000000, 273.000000)">
                <g id="Content">
                    <g id="I" transform="translate(144.000000, 36.000000)">
                        <path d="M44,22 C44,34.15 34.148,44 22,44 C9.848,44 0,34.15 0,22 C0,9.85 9.848,0 22,0 C34.148,0 44,9.85 44,22 L44,22 Z" id="Stroke-1009"></path>
                        <path d="M16,36 L28,36" id="Stroke-1010"></path>
                        <polyline id="Stroke-1011" points="18 18 22 18 22 35"></polyline>
                        <path d="M22,9 C22,9.553 21.55,10 21,10 C20.446,10 20,9.553 20,9 C20,8.447 20.446,8 21,8 C21.55,8 22,8.447 22,9 L22,9 Z" id="Stroke-1012"></path>
                    </g>
                </g>
            </g>
        </g>
    </g>
</svg>