<?xml version="1.0" encoding="UTF-8"?>
<svg width="54px" height="53px" viewBox="0 0 54 53" version="1.1" xmlns="http://www.w3.org/2000/svg" xmlns:xlink="http://www.w3.org/1999/xlink">
    <!-- Generator: sketchtool 41.2 (35397) - http://www.bohemiancoding.com/sketch -->
    <title>9823F079-7060-4B46-B01D-A0B4F3822729</title>
    <desc>Created with sketchtool.</desc>
    <defs></defs>
    <g id="Page-1" stroke="none" stroke-width="1" fill="none" fill-rule="evenodd" stroke-linecap="round" stroke-linejoin="round">
        <g id="5.1-Iconography" transform="translate(-595.000000, -463.000000)" stroke="#000000">
            <g id="Icons" transform="translate(496.000000, 273.000000)">
                <g id="Content">
                    <g id="examples" transform="translate(0.000000, 188.000000)">
                        <g id="lightbulb1" transform="translate(100.000000, 3.000000)">
                            <path d="M23,47 L29,47" id="Stroke-4781"></path>
                            <path d="M25,51 L27,51" id="Stroke-4782"></path>
                            <path d="M42,25 C42,16.164 34.837,9 26,9 C17.163,9 10,16.164 10,25 C10,32.452 15.102,38.697 22,40.476 L22,44 L30,44 L30,40.476 C36.897,38.697 42,32.452 42,25 L42,25 Z" id="Stroke-4783"></path>
                            <path d="M0,23 L4,23" id="Stroke-4784"></path>
                            <path d="M6,6 L11,11" id="Stroke-4785"></path>
                            <path d="M26,0 L26,4" id="Stroke-4786"></path>
                            <path d="M46,6 L41,11" id="Stroke-4787"></path>
                            <path d="M52,23 L48,23" id="Stroke-4788"></path>
                        </g>
                    </g>
                </g>
            </g>
        </g>
    </g>
</svg>