<?xml version="1.0" encoding="UTF-8"?>
<svg width="42px" height="60px" viewBox="0 0 42 60" version="1.1" xmlns="http://www.w3.org/2000/svg" xmlns:xlink="http://www.w3.org/1999/xlink">
    <!-- Generator: sketchtool 41.2 (35397) - http://www.bohemiancoding.com/sketch -->
    <title>CC855997-B481-40C4-8D13-7AB1D41A2CF1</title>
    <desc>Created with sketchtool.</desc>
    <defs></defs>
    <g id="Page-1" stroke="none" stroke-width="1" fill="none" fill-rule="evenodd" stroke-linecap="round" stroke-linejoin="round">
        <g id="5.1-Iconography" transform="translate(-495.000000, -460.000000)" stroke="#000000">
            <g id="Icons" transform="translate(496.000000, 273.000000)">
                <g id="Content">
                    <g id="examples" transform="translate(0.000000, 188.000000)">
                        <g id="lightbulb2">
                            <path d="M40,20 C40,31.045 31.046,40 20,40 C8.955,40 0,31.045 0,20 C0,8.955 8.955,0 20,0 C31.046,0 40,8.955 40,20 L40,20 Z" id="Stroke-4774"></path>
                            <path d="M20,40 L20,28" id="Stroke-4775"></path>
                            <polyline id="Stroke-4776" points="12 28 16 32 20 28 24 32 28 28"></polyline>
                            <path d="M14,45 L26,45" id="Stroke-4777"></path>
                            <path d="M14,49 L26,49" id="Stroke-4778"></path>
                            <path d="M14,53 L26,53" id="Stroke-4779"></path>
                            <path d="M20,54 L20,58" id="Stroke-4780"></path>
                        </g>
                    </g>
                </g>
            </g>
        </g>
    </g>
</svg>