<?xml version="1.0" encoding="UTF-8" standalone="no"?>
<svg width="535px" height="151px" viewBox="0 0 535 151" version="1.1" xmlns="http://www.w3.org/2000/svg" xmlns:xlink="http://www.w3.org/1999/xlink">
    <!-- Generator: sketchtool 41.2 (35397) - http://www.bohemiancoding.com/sketch -->
    <title>79E418E5-DF7C-4DAA-B2F6-69770DC316E8</title>
    <desc>Created with sketchtool.</desc>
    <defs></defs>
    <g id="Page-1" stroke="none" stroke-width="1" fill="none" fill-rule="evenodd">
        <g id="1.1-Logo" transform="translate(-538.000000, -147.000000)">
            <g id="Costco-Logo" transform="translate(539.000000, 148.000000)">
                <path d="M358.264017,129.498676 C358.264017,131.725515 356.01724,133.529926 353.246654,133.529926 C350.476068,133.529926 348.22929,131.725515 348.22929,129.498676 C348.22929,127.272941 350.476068,125.467426 353.246654,125.467426 C356.01724,125.467426 358.264017,127.272941 358.264017,129.498676" id="Fill-1" fill="#FEFEFE"></path>
                <path d="M301.671584,129.700735 C301.671584,131.815074 299.873942,133.530147 297.657913,133.530147 C295.441883,133.530147 293.644242,131.815074 293.644242,129.700735 C293.644242,127.586397 295.441883,125.871324 297.657913,125.871324 C299.873942,125.871324 301.671584,127.586397 301.671584,129.700735" id="Fill-3" fill="#FEFEFE"></path>
                <path d="M235.446999,130.104081 C235.446999,132.441213 233.380315,134.336066 230.831552,134.336066 C228.28169,134.336066 226.215006,132.441213 226.215006,130.104081 C226.215006,127.765846 228.28169,125.870993 230.831552,125.870993 C233.380315,125.870993 235.446999,127.765846 235.446999,130.104081" id="Fill-5" fill="#FEFEFE"></path>
                <polygon id="Fill-7" fill="#FEFEFE" points="276.720166 46.3091176 296.563405 45.5613235 279.916828 100.662059 315.514961 100.662059 332.162636 45.5613235 351.554543 46.3091176 359.458894 20.1473529 284.624518 20.1473529"></polygon>
                <polygon id="Stroke-9" stroke="#FEFEFE" stroke-width="2" points="276.720166 46.3091176 296.563405 45.5613235 279.916828 100.662059 315.514961 100.662059 332.162636 45.5613235 351.554543 46.3091176 359.458894 20.1473529 284.624518 20.1473529"></polygon>
                <path d="M130.432232,61.0452941 C128.663142,70.2283824 134.985085,76.5294853 145.768738,76.5294853 C156.552391,76.5294853 165.301205,70.2283824 167.069197,61.0452941 C168.715297,52.5030147 163.077489,45.3482353 151.77442,45.3482353 C140.471351,45.3482353 132.078331,52.5030147 130.432232,61.0452941 M203.009947,60.6184559 C198.033215,86.4603676 170.755625,101.943456 140.873267,101.943456 C110.992007,101.943456 89.6794687,86.4603676 94.6562013,60.6184559 C99.5308076,35.3103676 127.123561,18.8655147 156.875241,18.8655147 C186.626922,18.8655147 207.884554,35.3103676 203.009947,60.6184559" id="Fill-11" fill="#FEFEFE"></path>
                <path d="M130.432232,61.0452941 C128.663142,70.2283824 134.985085,76.5294853 145.768738,76.5294853 C156.552391,76.5294853 165.301205,70.2283824 167.069197,61.0452941 C168.715297,52.5030147 163.077489,45.3482353 151.77442,45.3482353 C140.471351,45.3482353 132.078331,52.5030147 130.432232,61.0452941 L130.432232,61.0452941 Z M203.009947,60.6184559 C198.033215,86.4603676 170.755625,101.943456 140.873267,101.943456 C110.992007,101.943456 89.6794687,86.4603676 94.6562013,60.6184559 C99.5308076,35.3103676 127.123561,18.8655147 156.875241,18.8655147 C186.626922,18.8655147 207.884554,35.3103676 203.009947,60.6184559 L203.009947,60.6184559 Z" id="Stroke-13" stroke="#FEFEFE" stroke-width="2"></path>
                <path d="M191.945832,94.5751471 C202.104648,99.1666912 215.860943,101.943897 228.203942,101.943897 C249.380313,101.943897 272.519044,92.4398529 276.220846,73.2188971 C278.851969,59.5501471 269.214766,52.9302941 254.678798,50.1530882 L246.911713,48.6586029 C244.28608,48.1247794 239.951754,47.6968382 240.527175,44.7078676 C241.16519,41.3968382 245.897039,40.4361765 249.015733,40.4361765 C256.680692,40.4361765 263.050953,43.1052941 268.499882,46.5222059 L282.084869,25.91375 C273.395353,21.1082353 263.563781,18.8659559 252.390291,18.8659559 C231.083243,18.8659559 207.850072,29.5446324 204.168037,48.6586029 C201.741166,61.2586029 212.138276,67.9865441 225.64859,70.0148529 L232.588782,71.0825 C235.733831,71.6174265 240.349278,71.9372794 239.649768,75.5681618 C238.950258,79.1990441 233.137848,80.3736765 229.629317,80.3736765 C221.444942,80.3736765 214.4169,77.0626471 208.8329,73.0049265 L207.240609,71.8302941 L191.945832,94.5751471 Z" id="Fill-15" fill="#FEFEFE"></path>
                <path d="M191.945832,94.5751471 C202.104648,99.1666912 215.860943,101.943897 228.203942,101.943897 C249.380313,101.943897 272.519044,92.4398529 276.220846,73.2188971 C278.851969,59.5501471 269.214766,52.9302941 254.678798,50.1530882 L246.911713,48.6586029 C244.28608,48.1247794 239.951754,47.6968382 240.527175,44.7078676 C241.16519,41.3968382 245.897039,40.4361765 249.015733,40.4361765 C256.680692,40.4361765 263.050953,43.1052941 268.499882,46.5222059 L282.084869,25.91375 C273.395353,21.1082353 263.563781,18.8659559 252.390291,18.8659559 C231.083243,18.8659559 207.850072,29.5446324 204.168037,48.6586029 C201.741166,61.2586029 212.138276,67.9865441 225.64859,70.0148529 L232.588782,71.0825 C235.733831,71.6174265 240.349278,71.9372794 239.649768,75.5681618 C238.950258,79.1990441 233.137848,80.3736765 229.629317,80.3736765 C221.444942,80.3736765 214.4169,77.0626471 208.8329,73.0049265 L207.240609,71.8302941 L191.945832,94.5751471 L191.945832,94.5751471 Z" id="Stroke-17" stroke="#FEFEFE" stroke-width="2"></path>
                <path d="M428.758907,22.1763235 C421.635327,20.0410294 413.546489,18.8663971 405.490595,18.8663971 C376.777748,18.8663971 350.681748,37.6594118 346.157445,61.1520588 C341.735269,84.1108824 360.126778,101.943235 388.058854,101.943235 C394.424723,101.943235 407.863658,100.982574 414.010999,98.7402941 L420.850163,68.6266912 C414.250391,73.2182353 407.19819,76.1024265 399.013815,76.1024265 C388.36084,76.1024265 380.452096,69.2675 382.158593,60.4042647 C383.846421,51.6480147 393.887737,44.7072059 404.540712,44.7072059 C412.595507,44.7072059 419.021773,48.4450735 423.894183,52.8226471 L428.758907,22.1763235 Z" id="Fill-19" fill="#FEFEFE"></path>
                <path d="M428.758907,22.1763235 C421.635327,20.0410294 413.546489,18.8663971 405.490595,18.8663971 C376.777748,18.8663971 350.681748,37.6594118 346.157445,61.1520588 C341.735269,84.1108824 360.126778,101.943235 388.058854,101.943235 C394.424723,101.943235 407.863658,100.982574 414.010999,98.7402941 L420.850163,68.6266912 C414.250391,73.2182353 407.19819,76.1024265 399.013815,76.1024265 C388.36084,76.1024265 380.452096,69.2675 382.158593,60.4042647 C383.846421,51.6480147 393.887737,44.7072059 404.540712,44.7072059 C412.595507,44.7072059 419.021773,48.4450735 423.894183,52.8226471 L428.758907,22.1763235 L428.758907,22.1763235 Z" id="Stroke-21" stroke="#FEFEFE" stroke-width="2"></path>
                <path d="M480.651995,45.3483456 C491.956162,45.3483456 497.592872,52.503125 495.947871,61.0454044 C494.178781,70.2284926 485.429966,76.5284926 474.646313,76.5284926 C463.863759,76.5284926 457.540717,70.2284926 459.309807,61.0454044 C460.955906,52.503125 469.348926,45.3483456 480.651995,45.3483456 M485.753915,18.865625 C456.002235,18.865625 428.409481,35.3104779 423.533777,60.6185662 C418.557044,86.459375 439.869583,101.943566 469.751941,101.943566 C499.633201,101.943566 526.91079,86.459375 531.887523,60.6185662 C536.763227,35.3104779 515.505595,18.865625 485.753915,18.865625" id="Fill-23" fill="#FEFEFE"></path>
                <path d="M480.651995,45.3483456 C491.956162,45.3483456 497.592872,52.503125 495.947871,61.0454044 C494.178781,70.2284926 485.429966,76.5284926 474.646313,76.5284926 C463.863759,76.5284926 457.540717,70.2284926 459.309807,61.0454044 C460.955906,52.503125 469.348926,45.3483456 480.651995,45.3483456 L480.651995,45.3483456 Z M485.753915,18.865625 C456.002235,18.865625 428.409481,35.3104779 423.533777,60.6185662 C418.557044,86.459375 439.869583,101.943566 469.751941,101.943566 C499.633201,101.943566 526.91079,86.459375 531.887523,60.6185662 C536.763227,35.3104779 515.505595,18.865625 485.753915,18.865625 L485.753915,18.865625 Z" id="Stroke-25" stroke="#FEFEFE" stroke-width="2"></path>
                <path d="M103.837899,4.10375 C94.9529164,1.52286765 84.8643811,0.102279412 74.8175749,0.102279412 C39.0075024,0.102279412 6.46107708,22.8206618 0.817778626,51.2169853 C-4.69703843,78.9691912 18.2418332,100.525074 53.0800592,100.525074 C61.0195509,100.525074 77.7781377,99.3636765 85.4463909,96.6526471 L93.9766774,60.2533824 C85.7439846,65.8033824 76.9490484,69.2886765 66.7408167,69.2886765 C53.453424,69.2886765 43.5911038,61.0276471 45.7192829,50.3136765 C47.8233031,39.7298529 60.3463962,31.3386765 73.633789,31.3386765 C83.6805952,31.3386765 91.6947599,35.8574265 97.7729185,41.1493382 L103.837899,4.10375 Z" id="Fill-27" fill="#FEFEFE"></path>
                <path d="M103.837899,4.10375 C94.9529164,1.52286765 84.8643811,0.102279412 74.8175749,0.102279412 C39.0075024,0.102279412 6.46107708,22.8206618 0.817778626,51.2169853 C-4.69703843,78.9691912 18.2418332,100.525074 53.0800592,100.525074 C61.0195509,100.525074 77.7781377,99.3636765 85.4463909,96.6526471 L93.9766774,60.2533824 C85.7439846,65.8033824 76.9490484,69.2886765 66.7408167,69.2886765 C53.453424,69.2886765 43.5911038,61.0276471 45.7192829,50.3136765 C47.8233031,39.7298529 60.3463962,31.3386765 73.633789,31.3386765 C83.6805952,31.3386765 91.6947599,35.8574265 97.7729185,41.1493382 L103.837899,4.10375 L103.837899,4.10375 Z" id="Stroke-29" stroke="#FEFEFE" stroke-width="2"></path>
                <polygon id="Fill-31" fill="#FEFEFE" points="137.987267 138.340074 2.75565152 138.340074 2.75565152 147.600368 136.526752 147.600368"></polygon>
                <polygon id="Stroke-33" stroke="#FEFEFE" stroke-width="2" points="137.987267 138.340074 2.75565152 138.340074 2.75565152 147.600368 136.526752 147.600368"></polygon>
                <polygon id="Fill-35" fill="#FEFEFE" points="140.076243 125.188713 2.75598095 125.188713 2.75598095 134.449007 138.615728 134.449007"></polygon>
                <polygon id="Stroke-37" stroke="#FEFEFE" stroke-width="2" points="140.076243 125.188713 2.75598095 125.188713 2.75598095 134.449007 138.615728 134.449007"></polygon>
                <polygon id="Fill-39" fill="#FEFEFE" points="142.247359 111.424559 2.75609077 111.424559 2.75609077 121.236324 140.700092 121.236324"></polygon>
                <polygon id="Stroke-41" stroke="#FEFEFE" stroke-width="2" points="142.247359 111.424559 2.75609077 111.424559 2.75609077 121.236324 140.700092 121.236324"></polygon>
                <path d="M157.11716,127.526618 L158.411857,127.526618 C160.714639,127.526618 163.271089,127.140588 163.733403,124.20125 C164.182539,121.358971 161.518471,121.214485 159.359545,121.214485 L158.112067,121.214485 L157.11716,127.526618 Z M147.012152,111.289118 L163.65873,111.289118 C172.102264,111.289118 177.655516,115.624779 176.234533,124.634706 C175.063925,132.055294 169.729202,136.681029 162.38929,136.681029 L155.673117,136.681029 L153.94905,147.618897 L141.2832,147.618897 L147.012152,111.289118 Z" id="Fill-43" fill="#FEFEFE"></path>
                <polygon id="Fill-45" fill="#FEFEFE" points="179.05783 111.288897 191.722582 111.288897 189.793165 123.527132 197.852353 123.527132 199.78177 111.288897 212.44762 111.288897 206.718667 147.618676 194.053915 147.618676 196.04373 134.994412 187.984542 134.994412 185.993629 147.618676 173.328877 147.618676"></polygon>
                <path d="M223.543911,129.742647 C222.890523,133.886397 225.22515,136.728676 229.206976,136.728676 C233.188801,136.728676 236.419504,133.886397 237.072893,129.742647 C237.680159,125.887868 235.598102,122.659559 231.425202,122.659559 C227.251203,122.659559 224.152276,125.887868 223.543911,129.742647 M250.343813,129.549632 C248.504443,141.209926 238.432379,148.197059 227.398353,148.197059 C216.364326,148.197059 208.495115,141.209926 210.334485,129.549632 C212.134323,118.130882 222.323887,110.710294 233.309595,110.710294 C244.295304,110.710294 252.143651,118.130882 250.343813,129.549632" id="Fill-47" fill="#FEFEFE"></path>
                <polygon id="Fill-49" fill="#FEFEFE" points="252.502301 111.288897 280.134587 111.288897 278.273254 123.093676 271.082688 122.756176 267.162358 147.618676 254.017722 147.618676 257.938052 122.756176 250.640968 123.093676"></polygon>
                <path d="M290.704214,129.742647 C290.050825,133.886397 292.385453,136.728676 296.367279,136.728676 C300.349104,136.728676 303.579807,133.886397 304.233196,129.742647 C304.840462,125.887868 302.759503,122.659559 298.586603,122.659559 C294.412604,122.659559 291.312579,125.887868 290.704214,129.742647 M317.504116,129.549632 C315.664746,141.209926 305.592682,148.197059 294.558656,148.197059 C283.525727,148.197059 275.656516,141.209926 277.494788,129.549632 C279.294626,118.130882 289.48419,110.710294 300.470997,110.710294 C311.455607,110.710294 319.305052,118.130882 317.504116,129.549632" id="Fill-51" fill="#FEFEFE"></path>
                <path d="M360.84847,126.032684 C359.048632,124.057316 356.676668,122.370919 353.702927,122.370919 C349.768322,122.370919 346.061029,125.503272 345.438389,129.454007 C344.808061,133.453272 347.726895,136.535993 351.660403,136.535993 C354.683559,136.535993 357.287229,135.235625 359.725081,133.163199 L357.19828,146.751434 C354.927344,147.762831 349.965985,148.19739 347.614886,148.19739 C337.301233,148.19739 330.510387,140.150331 332.143309,129.791507 C333.815764,119.190037 343.451869,110.710625 354.054329,110.710625 C357.02807,110.710625 360.014988,111.240037 362.646111,112.204007 L360.84847,126.032684 Z" id="Fill-53" fill="#FEFEFE"></path>
                <polygon id="Fill-55" fill="#FEFEFE" points="365.71495 111.288897 390.037468 111.288897 388.47263 121.214265 377.391384 121.214265 376.844514 124.683015 386.967091 124.683015 385.476927 134.1275 375.354349 134.1275 374.793204 137.692206 386.257698 137.692206 384.692861 147.618676 359.985997 147.618676"></polygon>
                <path d="M393.731253,111.288897 L406.347687,111.288897 L414.973511,131.428603 L415.356759,131.428603 C415.307343,128.393309 415.226081,125.260956 415.712554,122.178235 L417.430032,111.288897 L429.998148,111.288897 L424.270294,147.618676 L411.699981,147.618676 L403.147732,128.537794 L402.764484,128.537794 C402.800722,131.043676 402.812801,133.405074 402.432848,135.813897 L400.570417,147.618676 L388.0023,147.618676 L393.731253,111.288897 Z" id="Fill-57" fill="#FEFEFE"></path>
                <polygon id="Fill-59" fill="#FEFEFE" points="432.30104 111.288897 459.932228 111.288897 458.071993 123.093676 450.880329 122.756176 446.961097 147.618676 433.815364 147.618676 437.735693 122.756176 430.439707 123.093676"></polygon>
                <polygon id="Fill-61" fill="#FEFEFE" points="462.234681 111.288897 486.557198 111.288897 484.992361 121.214265 473.910016 121.214265 473.363147 124.683015 483.485724 124.683015 481.996658 134.1275 471.87408 134.1275 471.311837 137.692206 482.777429 137.692206 481.211493 147.618676 456.505728 147.618676"></polygon>
                <path d="M500.761531,127.381691 L501.67298,127.381691 C503.831907,127.381691 506.043544,127.044191 506.468521,124.346397 C506.90997,121.551544 504.997025,121.214044 502.741462,121.214044 L501.734475,121.214044 L500.761531,127.381691 Z M490.442388,111.288676 L506.320273,111.288676 C514.476097,111.288676 520.837573,114.757426 519.394628,123.912941 C518.528202,129.405588 516.053014,131.718456 510.90058,133.356324 L510.854459,133.645294 C511.444155,134.175809 512.167824,134.75375 512.720184,135.813676 L518.725866,147.618456 L503.567257,147.618456 L499.648025,135.958162 L499.409731,135.958162 L497.57036,147.618456 L484.713435,147.618456 L490.442388,111.288676 Z" id="Fill-63" fill="#FEFEFE"></path>
                <path d="M157.11716,127.526618 L158.411857,127.526618 C160.714639,127.526618 163.271089,127.140588 163.733403,124.20125 C164.182539,121.358971 161.518471,121.214485 159.359545,121.214485 L158.112067,121.214485 L157.11716,127.526618 Z M147.012152,111.289118 L163.65873,111.289118 C172.102264,111.289118 177.655516,115.624779 176.234533,124.634706 C175.063925,132.055294 169.729202,136.681029 162.38929,136.681029 L155.673117,136.681029 L153.94905,147.618897 L141.2832,147.618897 L147.012152,111.289118 Z" id="Fill-65" fill="#FEFEFE"></path>
                <path d="M157.11716,127.526618 L158.411857,127.526618 C160.714639,127.526618 163.271089,127.140588 163.733403,124.20125 C164.182539,121.358971 161.518471,121.214485 159.359545,121.214485 L158.112067,121.214485 L157.11716,127.526618 L157.11716,127.526618 Z M147.012152,111.289118 L163.65873,111.289118 C172.102264,111.289118 177.655516,115.624779 176.234533,124.634706 C175.063925,132.055294 169.729202,136.681029 162.38929,136.681029 L155.673117,136.681029 L153.94905,147.618897 L141.2832,147.618897 L147.012152,111.289118 L147.012152,111.289118 Z" id="Stroke-67" stroke="#FEFEFE" stroke-width="2"></path>
                <polygon id="Fill-69" fill="#FEFEFE" points="179.05783 111.288897 191.722582 111.288897 189.793165 123.527132 197.852353 123.527132 199.78177 111.288897 212.44762 111.288897 206.718667 147.618676 194.053915 147.618676 196.04373 134.994412 187.984542 134.994412 185.993629 147.618676 173.328877 147.618676"></polygon>
                <polygon id="Stroke-71" stroke="#FEFEFE" stroke-width="2" points="179.05783 111.288897 191.722582 111.288897 189.793165 123.527132 197.852353 123.527132 199.78177 111.288897 212.44762 111.288897 206.718667 147.618676 194.053915 147.618676 196.04373 134.994412 187.984542 134.994412 185.993629 147.618676 173.328877 147.618676"></polygon>
                <path d="M223.543911,129.742647 C222.890523,133.886397 225.22515,136.728676 229.206976,136.728676 C233.188801,136.728676 236.419504,133.886397 237.072893,129.742647 C237.680159,125.887868 235.598102,122.659559 231.425202,122.659559 C227.251203,122.659559 224.152276,125.887868 223.543911,129.742647 M250.343813,129.549632 C248.504443,141.209926 238.432379,148.197059 227.398353,148.197059 C216.364326,148.197059 208.495115,141.209926 210.334485,129.549632 C212.134323,118.130882 222.323887,110.710294 233.309595,110.710294 C244.295304,110.710294 252.143651,118.130882 250.343813,129.549632" id="Fill-73" fill="#FEFEFE"></path>
                <path d="M223.543911,129.742647 C222.890523,133.886397 225.22515,136.728676 229.206976,136.728676 C233.188801,136.728676 236.419504,133.886397 237.072893,129.742647 C237.680159,125.887868 235.598102,122.659559 231.425202,122.659559 C227.251203,122.659559 224.152276,125.887868 223.543911,129.742647 L223.543911,129.742647 Z M250.343813,129.549632 C248.504443,141.209926 238.432379,148.197059 227.398353,148.197059 C216.364326,148.197059 208.495115,141.209926 210.334485,129.549632 C212.134323,118.130882 222.323887,110.710294 233.309595,110.710294 C244.295304,110.710294 252.143651,118.130882 250.343813,129.549632 L250.343813,129.549632 Z" id="Stroke-75" stroke="#FEFEFE" stroke-width="2"></path>
                <polygon id="Fill-77" fill="#FEFEFE" points="252.502301 111.288897 280.134587 111.288897 278.273254 123.093676 271.082688 122.756176 267.162358 147.618676 254.017722 147.618676 257.938052 122.756176 250.640968 123.093676"></polygon>
                <polygon id="Stroke-79" stroke="#FEFEFE" stroke-width="2" points="252.502301 111.288897 280.134587 111.288897 278.273254 123.093676 271.082688 122.756176 267.162358 147.618676 254.017722 147.618676 257.938052 122.756176 250.640968 123.093676"></polygon>
                <path d="M290.704214,129.742647 C290.050825,133.886397 292.385453,136.728676 296.367279,136.728676 C300.349104,136.728676 303.579807,133.886397 304.233196,129.742647 C304.840462,125.887868 302.759503,122.659559 298.586603,122.659559 C294.412604,122.659559 291.312579,125.887868 290.704214,129.742647 M317.504116,129.549632 C315.664746,141.209926 305.592682,148.197059 294.558656,148.197059 C283.525727,148.197059 275.656516,141.209926 277.494788,129.549632 C279.294626,118.130882 289.48419,110.710294 300.470997,110.710294 C311.455607,110.710294 319.305052,118.130882 317.504116,129.549632" id="Fill-81" fill="#FEFEFE"></path>
                <path d="M290.704214,129.742647 C290.050825,133.886397 292.385453,136.728676 296.367279,136.728676 C300.349104,136.728676 303.579807,133.886397 304.233196,129.742647 C304.840462,125.887868 302.759503,122.659559 298.586603,122.659559 C294.412604,122.659559 291.312579,125.887868 290.704214,129.742647 L290.704214,129.742647 Z M317.504116,129.549632 C315.664746,141.209926 305.592682,148.197059 294.558656,148.197059 C283.525727,148.197059 275.656516,141.209926 277.494788,129.549632 C279.294626,118.130882 289.48419,110.710294 300.470997,110.710294 C311.455607,110.710294 319.305052,118.130882 317.504116,129.549632 L317.504116,129.549632 Z" id="Stroke-83" stroke="#FEFEFE" stroke-width="2"></path>
                <path d="M360.84847,126.032684 C359.048632,124.057316 356.676668,122.370919 353.702927,122.370919 C349.768322,122.370919 346.061029,125.503272 345.438389,129.454007 C344.808061,133.453272 347.726895,136.535993 351.660403,136.535993 C354.683559,136.535993 357.287229,135.235625 359.725081,133.163199 L357.19828,146.751434 C354.927344,147.762831 349.965985,148.19739 347.614886,148.19739 C337.301233,148.19739 330.510387,140.150331 332.143309,129.791507 C333.815764,119.190037 343.451869,110.710625 354.054329,110.710625 C357.02807,110.710625 360.014988,111.240037 362.646111,112.204007 L360.84847,126.032684 Z" id="Fill-85" fill="#FEFEFE"></path>
                <path d="M360.84847,126.032684 C359.048632,124.057316 356.676668,122.370919 353.702927,122.370919 C349.768322,122.370919 346.061029,125.503272 345.438389,129.454007 C344.808061,133.453272 347.726895,136.535993 351.660403,136.535993 C354.683559,136.535993 357.287229,135.235625 359.725081,133.163199 L357.19828,146.751434 C354.927344,147.762831 349.965985,148.19739 347.614886,148.19739 C337.301233,148.19739 330.510387,140.150331 332.143309,129.791507 C333.815764,119.190037 343.451869,110.710625 354.054329,110.710625 C357.02807,110.710625 360.014988,111.240037 362.646111,112.204007 L360.84847,126.032684 L360.84847,126.032684 Z" id="Stroke-87" stroke="#FEFEFE" stroke-width="2"></path>
                <polygon id="Fill-89" fill="#FEFEFE" points="365.71495 111.288897 390.037468 111.288897 388.47263 121.214265 377.391384 121.214265 376.844514 124.683015 386.967091 124.683015 385.476927 134.1275 375.354349 134.1275 374.793204 137.692206 386.257698 137.692206 384.692861 147.618676 359.985997 147.618676"></polygon>
                <polygon id="Stroke-91" stroke="#FEFEFE" stroke-width="2" points="365.71495 111.288897 390.037468 111.288897 388.47263 121.214265 377.391384 121.214265 376.844514 124.683015 386.967091 124.683015 385.476927 134.1275 375.354349 134.1275 374.793204 137.692206 386.257698 137.692206 384.692861 147.618676 359.985997 147.618676"></polygon>
                <path d="M393.731253,111.288897 L406.347687,111.288897 L414.973511,131.428603 L415.356759,131.428603 C415.307343,128.393309 415.226081,125.260956 415.712554,122.178235 L417.430032,111.288897 L429.998148,111.288897 L424.270294,147.618676 L411.699981,147.618676 L403.147732,128.537794 L402.764484,128.537794 C402.800722,131.043676 402.812801,133.405074 402.432848,135.813897 L400.570417,147.618676 L388.0023,147.618676 L393.731253,111.288897 Z" id="Fill-93" fill="#FEFEFE"></path>
                <path d="M393.731253,111.288897 L406.347687,111.288897 L414.973511,131.428603 L415.356759,131.428603 C415.307343,128.393309 415.226081,125.260956 415.712554,122.178235 L417.430032,111.288897 L429.998148,111.288897 L424.270294,147.618676 L411.699981,147.618676 L403.147732,128.537794 L402.764484,128.537794 C402.800722,131.043676 402.812801,133.405074 402.432848,135.813897 L400.570417,147.618676 L388.0023,147.618676 L393.731253,111.288897 L393.731253,111.288897 Z" id="Stroke-95" stroke="#FEFEFE" stroke-width="2"></path>
                <polygon id="Fill-97" fill="#FEFEFE" points="432.30104 111.288897 459.932228 111.288897 458.071993 123.093676 450.880329 122.756176 446.961097 147.618676 433.815364 147.618676 437.735693 122.756176 430.439707 123.093676"></polygon>
                <polygon id="Stroke-99" stroke="#FEFEFE" stroke-width="2" points="432.30104 111.288897 459.932228 111.288897 458.071993 123.093676 450.880329 122.756176 446.961097 147.618676 433.815364 147.618676 437.735693 122.756176 430.439707 123.093676"></polygon>
                <polygon id="Fill-101" fill="#FEFEFE" points="462.234681 111.288897 486.557198 111.288897 484.992361 121.214265 473.910016 121.214265 473.363147 124.683015 483.485724 124.683015 481.996658 134.1275 471.87408 134.1275 471.311837 137.692206 482.777429 137.692206 481.211493 147.618676 456.505728 147.618676"></polygon>
                <polygon id="Stroke-103" stroke="#FEFEFE" stroke-width="2" points="462.234681 111.288897 486.557198 111.288897 484.992361 121.214265 473.910016 121.214265 473.363147 124.683015 483.485724 124.683015 481.996658 134.1275 471.87408 134.1275 471.311837 137.692206 482.777429 137.692206 481.211493 147.618676 456.505728 147.618676"></polygon>
                <path d="M500.761531,127.381691 L501.67298,127.381691 C503.831907,127.381691 506.043544,127.044191 506.468521,124.346397 C506.90997,121.551544 504.997025,121.214044 502.741462,121.214044 L501.734475,121.214044 L500.761531,127.381691 Z M490.442388,111.288676 L506.320273,111.288676 C514.476097,111.288676 520.837573,114.757426 519.394628,123.912941 C518.528202,129.405588 516.053014,131.718456 510.90058,133.356324 L510.854459,133.645294 C511.444155,134.175809 512.167824,134.75375 512.720184,135.813676 L518.725866,147.618456 L503.567257,147.618456 L499.648025,135.958162 L499.409731,135.958162 L497.57036,147.618456 L484.713435,147.618456 L490.442388,111.288676 Z" id="Fill-105" fill="#FEFEFE"></path>
                <path d="M500.761531,127.381691 L501.67298,127.381691 C503.831907,127.381691 506.043544,127.044191 506.468521,124.346397 C506.90997,121.551544 504.997025,121.214044 502.741462,121.214044 L501.734475,121.214044 L500.761531,127.381691 L500.761531,127.381691 Z M490.442388,111.288676 L506.320273,111.288676 C514.476097,111.288676 520.837573,114.757426 519.394628,123.912941 C518.528202,129.405588 516.053014,131.718456 510.90058,133.356324 L510.854459,133.645294 C511.444155,134.175809 512.167824,134.75375 512.720184,135.813676 L518.725866,147.618456 L503.567257,147.618456 L499.648025,135.958162 L499.409731,135.958162 L497.57036,147.618456 L484.713435,147.618456 L490.442388,111.288676 L490.442388,111.288676 Z" id="Stroke-107" stroke="#FEFEFE" stroke-width="2"></path>
                <path d="M525.385925,93.9725 C526.713566,98.0633088 523.709078,102.715515 518.674144,104.363309 C513.641407,106.011103 508.483483,104.031324 507.155841,99.9405147 C505.8282,95.8497059 508.832688,91.1975 513.866524,89.5497059 C518.901457,87.9008088 524.057185,89.8827941 525.385925,93.9725" id="Fill-109" fill="#FEFEFE"></path>
                <polygon id="Fill-111" fill="#E0393E" points="276.720166 46.3091176 296.563405 45.5613235 279.916828 100.662059 315.514961 100.662059 332.162636 45.5613235 351.554543 46.3091176 359.458894 20.1473529 284.624518 20.1473529"></polygon>
                <path d="M130.432232,61.0452941 C128.663142,70.2283824 134.985085,76.5294853 145.768738,76.5294853 C156.552391,76.5294853 165.301205,70.2283824 167.069197,61.0452941 C168.715297,52.5030147 163.077489,45.3482353 151.77442,45.3482353 C140.471351,45.3482353 132.078331,52.5030147 130.432232,61.0452941 M203.009947,60.6184559 C198.033215,86.4603676 170.755625,101.943456 140.873267,101.943456 C110.992007,101.943456 89.6794687,86.4603676 94.6562013,60.6184559 C99.5308076,35.3103676 127.123561,18.8655147 156.875241,18.8655147 C186.626922,18.8655147 207.884554,35.3103676 203.009947,60.6184559" id="Fill-113" fill="#E0393E"></path>
                <path d="M191.945832,94.5751471 C202.104648,99.1666912 215.860943,101.943897 228.203942,101.943897 C249.380313,101.943897 272.519044,92.4398529 276.220846,73.2188971 C278.851969,59.5501471 269.214766,52.9302941 254.678798,50.1530882 L246.911713,48.6586029 C244.28608,48.1247794 239.951754,47.6968382 240.527175,44.7078676 C241.16519,41.3968382 245.897039,40.4361765 249.015733,40.4361765 C256.680692,40.4361765 263.050953,43.1052941 268.499882,46.5222059 L282.084869,25.91375 C273.395353,21.1082353 263.563781,18.8659559 252.390291,18.8659559 C231.083243,18.8659559 207.850072,29.5446324 204.168037,48.6586029 C201.741166,61.2586029 212.138276,67.9865441 225.64859,70.0148529 L232.588782,71.0825 C235.733831,71.6174265 240.349278,71.9372794 239.649768,75.5681618 C238.950258,79.1990441 233.137848,80.3736765 229.629317,80.3736765 C221.444942,80.3736765 214.4169,77.0626471 208.8329,73.0049265 L207.240609,71.8302941 L191.945832,94.5751471 Z" id="Fill-115" fill="#E0393E"></path>
                <path d="M428.758907,22.1763235 C421.635327,20.0410294 413.546489,18.8663971 405.490595,18.8663971 C376.777748,18.8663971 350.681748,37.6594118 346.157445,61.1520588 C341.735269,84.1108824 360.126778,101.943235 388.058854,101.943235 C394.424723,101.943235 407.863658,100.982574 414.010999,98.7402941 L420.850163,68.6266912 C414.250391,73.2182353 407.19819,76.1024265 399.013815,76.1024265 C388.36084,76.1024265 380.452096,69.2675 382.158593,60.4042647 C383.846421,51.6480147 393.887737,44.7072059 404.540712,44.7072059 C412.595507,44.7072059 419.021773,48.4450735 423.894183,52.8226471 L428.758907,22.1763235 Z" id="Fill-117" fill="#E0393E"></path>
                <path d="M480.651995,45.3483456 C491.956162,45.3483456 497.592872,52.503125 495.947871,61.0454044 C494.178781,70.2284926 485.429966,76.5284926 474.646313,76.5284926 C463.863759,76.5284926 457.540717,70.2284926 459.309807,61.0454044 C460.955906,52.503125 469.348926,45.3483456 480.651995,45.3483456 M485.753915,18.865625 C456.002235,18.865625 428.409481,35.3104779 423.533777,60.6185662 C418.557044,86.459375 439.869583,101.943566 469.751941,101.943566 C499.633201,101.943566 526.91079,86.459375 531.887523,60.6185662 C536.763227,35.3104779 515.505595,18.865625 485.753915,18.865625" id="Fill-119" fill="#E0393E"></path>
                <path d="M103.837899,4.10375 C94.9529164,1.52286765 84.8643811,0.102279412 74.8175749,0.102279412 C39.0075024,0.102279412 6.46107708,22.8206618 0.817778626,51.2169853 C-4.69703843,78.9691912 18.2418332,100.525074 53.0800592,100.525074 C61.0195509,100.525074 77.7781377,99.3636765 85.4463909,96.6526471 L93.9766774,60.2533824 C85.7439846,65.8033824 76.9490484,69.2886765 66.7408167,69.2886765 C53.453424,69.2886765 43.5911038,61.0276471 45.7192829,50.3136765 C47.8233031,39.7298529 60.3463962,31.3386765 73.633789,31.3386765 C83.6805952,31.3386765 91.6947599,35.8574265 97.7729185,41.1493382 L103.837899,4.10375 Z" id="Fill-121" fill="#E0393E"></path>
                <path d="M516.453942,96.1380147 C517.122704,96.1380147 517.699223,96.1380147 517.80684,95.5644853 C517.895788,95.0957353 517.320368,95.0957353 516.651605,95.0957353 L515.20317,95.0957353 L515.006604,96.1380147 L516.453942,96.1380147 Z M518.403125,99.4071324 L516.831699,99.4071324 L515.841184,97.1538235 L514.814431,97.1538235 L514.388356,99.4071324 L513.048635,99.4071324 L514.05672,94.0799265 L517.138078,94.0799265 C518.493172,94.0799265 519.231117,94.4582353 518.99392,95.7078676 C518.821513,96.62 518.111022,97.08875 517.28962,97.1538235 L518.403125,99.4071324 Z M520.573033,96.7501471 C521.001305,94.4836029 519.382659,92.9979412 516.783381,92.9979412 C514.136884,92.9979412 512.003214,94.4836029 511.574943,96.7501471 C511.145573,99.0166912 512.715902,100.514485 515.361301,100.514485 C517.961676,100.514485 520.142566,99.0166912 520.573033,96.7501471 L520.573033,96.7501471 Z M509.987044,96.7501471 C510.519638,93.9365441 513.640528,91.67 517.033755,91.67 C520.411608,91.67 522.692427,93.9365441 522.159834,96.7501471 C521.625043,99.5769853 518.48878,101.843529 515.109829,101.843529 C511.716602,101.843529 509.452254,99.5769853 509.987044,96.7501471 L509.987044,96.7501471 Z" id="Fill-123" fill="#E0393E"></path>
                <polygon id="Fill-125" fill="#0060A9" points="137.987267 138.340074 2.75565152 138.340074 2.75565152 147.600368 136.526752 147.600368"></polygon>
                <polygon id="Stroke-127" points="137.987267 138.340074 2.75565152 138.340074 2.75565152 147.600368 136.526752 147.600368"></polygon>
                <polygon id="Fill-129" fill="#0060A9" points="140.076243 125.188713 2.75598095 125.188713 2.75598095 134.449007 138.615728 134.449007"></polygon>
                <polygon id="Stroke-131" points="140.076243 125.188713 2.75598095 125.188713 2.75598095 134.449007 138.615728 134.449007"></polygon>
                <polygon id="Fill-133" fill="#0060A9" points="142.247359 111.424559 2.75609077 111.424559 2.75609077 121.236324 140.700092 121.236324"></polygon>
                <polygon id="Stroke-135" points="142.247359 111.424559 2.75609077 111.424559 2.75609077 121.236324 140.700092 121.236324"></polygon>
                <path d="M157.11716,127.526618 L158.411857,127.526618 C160.714639,127.526618 163.271089,127.140588 163.733403,124.20125 C164.182539,121.358971 161.518471,121.214485 159.359545,121.214485 L158.112067,121.214485 L157.11716,127.526618 Z M147.012152,111.289118 L163.65873,111.289118 C172.102264,111.289118 177.655516,115.624779 176.234533,124.634706 C175.063925,132.055294 169.729202,136.681029 162.38929,136.681029 L155.673117,136.681029 L153.94905,147.618897 L141.2832,147.618897 L147.012152,111.289118 Z" id="Fill-137" fill="#00AA4E"></path>
                <polygon id="Fill-139" fill="#00AA4E" points="179.05783 111.288897 191.722582 111.288897 189.793165 123.527132 197.852353 123.527132 199.78177 111.288897 212.44762 111.288897 206.718667 147.618676 194.053915 147.618676 196.04373 134.994412 187.984542 134.994412 185.993629 147.618676 173.328877 147.618676"></polygon>
                <path d="M223.543911,129.742647 C222.890523,133.886397 225.22515,136.728676 229.206976,136.728676 C233.188801,136.728676 236.419504,133.886397 237.072893,129.742647 C237.680159,125.887868 235.598102,122.659559 231.425202,122.659559 C227.251203,122.659559 224.152276,125.887868 223.543911,129.742647 M250.343813,129.549632 C248.504443,141.209926 238.432379,148.197059 227.398353,148.197059 C216.364326,148.197059 208.495115,141.209926 210.334485,129.549632 C212.134323,118.130882 222.323887,110.710294 233.309595,110.710294 C244.295304,110.710294 252.143651,118.130882 250.343813,129.549632" id="Fill-141" fill="#00AA4E"></path>
                <polygon id="Fill-143" fill="#00AA4E" points="252.502301 111.288897 280.134587 111.288897 278.273254 123.093676 271.082688 122.756176 267.162358 147.618676 254.017722 147.618676 257.938052 122.756176 250.640968 123.093676"></polygon>
                <path d="M290.704214,129.742647 C290.050825,133.886397 292.385453,136.728676 296.367279,136.728676 C300.349104,136.728676 303.579807,133.886397 304.233196,129.742647 C304.840462,125.887868 302.759503,122.659559 298.586603,122.659559 C294.412604,122.659559 291.312579,125.887868 290.704214,129.742647 M317.504116,129.549632 C315.664746,141.209926 305.592682,148.197059 294.558656,148.197059 C283.525727,148.197059 275.656516,141.209926 277.494788,129.549632 C279.294626,118.130882 289.48419,110.710294 300.470997,110.710294 C311.455607,110.710294 319.305052,118.130882 317.504116,129.549632" id="Fill-145" fill="#00AA4E"></path>
                <path d="M360.84847,126.032684 C359.048632,124.057316 356.676668,122.370919 353.702927,122.370919 C349.768322,122.370919 346.061029,125.503272 345.438389,129.454007 C344.808061,133.453272 347.726895,136.535993 351.660403,136.535993 C354.683559,136.535993 357.287229,135.235625 359.725081,133.163199 L357.19828,146.751434 C354.927344,147.762831 349.965985,148.19739 347.614886,148.19739 C337.301233,148.19739 330.510387,140.150331 332.143309,129.791507 C333.815764,119.190037 343.451869,110.710625 354.054329,110.710625 C357.02807,110.710625 360.014988,111.240037 362.646111,112.204007 L360.84847,126.032684 Z" id="Fill-147" fill="#00AA4E"></path>
                <polygon id="Fill-149" fill="#00AA4E" points="365.71495 111.288897 390.037468 111.288897 388.47263 121.214265 377.391384 121.214265 376.844514 124.683015 386.967091 124.683015 385.476927 134.1275 375.354349 134.1275 374.793204 137.692206 386.257698 137.692206 384.692861 147.618676 359.985997 147.618676"></polygon>
                <path d="M393.731253,111.288897 L406.347687,111.288897 L414.973511,131.428603 L415.356759,131.428603 C415.307343,128.393309 415.226081,125.260956 415.712554,122.178235 L417.430032,111.288897 L429.998148,111.288897 L424.270294,147.618676 L411.699981,147.618676 L403.147732,128.537794 L402.764484,128.537794 C402.800722,131.043676 402.812801,133.405074 402.432848,135.813897 L400.570417,147.618676 L388.0023,147.618676 L393.731253,111.288897 Z" id="Fill-151" fill="#00AA4E"></path>
                <polygon id="Fill-153" fill="#00AA4E" points="432.30104 111.288897 459.932228 111.288897 458.071993 123.093676 450.880329 122.756176 446.961097 147.618676 433.815364 147.618676 437.735693 122.756176 430.439707 123.093676"></polygon>
                <polygon id="Fill-155" fill="#00AA4E" points="462.234681 111.288897 486.557198 111.288897 484.992361 121.214265 473.910016 121.214265 473.363147 124.683015 483.485724 124.683015 481.996658 134.1275 471.87408 134.1275 471.311837 137.692206 482.777429 137.692206 481.211493 147.618676 456.505728 147.618676"></polygon>
                <path d="M500.761531,127.381691 L501.67298,127.381691 C503.831907,127.381691 506.043544,127.044191 506.468521,124.346397 C506.90997,121.551544 504.997025,121.214044 502.741462,121.214044 L501.734475,121.214044 L500.761531,127.381691 Z M490.442388,111.288676 L506.320273,111.288676 C514.476097,111.288676 520.837573,114.757426 519.394628,123.912941 C518.528202,129.405588 516.053014,131.718456 510.90058,133.356324 L510.854459,133.645294 C511.444155,134.175809 512.167824,134.75375 512.720184,135.813676 L518.725866,147.618456 L503.567257,147.618456 L499.648025,135.958162 L499.409731,135.958162 L497.57036,147.618456 L484.713435,147.618456 L490.442388,111.288676 Z" id="Fill-157" fill="#00AA4E"></path>
                <path d="M157.11716,127.526618 L158.411857,127.526618 C160.714639,127.526618 163.271089,127.140588 163.733403,124.20125 C164.182539,121.358971 161.518471,121.214485 159.359545,121.214485 L158.112067,121.214485 L157.11716,127.526618 Z M147.012152,111.289118 L163.65873,111.289118 C172.102264,111.289118 177.655516,115.624779 176.234533,124.634706 C175.063925,132.055294 169.729202,136.681029 162.38929,136.681029 L155.673117,136.681029 L153.94905,147.618897 L141.2832,147.618897 L147.012152,111.289118 Z" id="Fill-159" fill="#0060A9"></path>
                <path d="M157.11716,127.526618 L158.411857,127.526618 C160.714639,127.526618 163.271089,127.140588 163.733403,124.20125 C164.182539,121.358971 161.518471,121.214485 159.359545,121.214485 L158.112067,121.214485 L157.11716,127.526618 L157.11716,127.526618 Z M147.012152,111.289118 L163.65873,111.289118 C172.102264,111.289118 177.655516,115.624779 176.234533,124.634706 C175.063925,132.055294 169.729202,136.681029 162.38929,136.681029 L155.673117,136.681029 L153.94905,147.618897 L141.2832,147.618897 L147.012152,111.289118 L147.012152,111.289118 Z" id="Stroke-161"></path>
                <polygon id="Fill-163" fill="#0060A9" points="179.05783 111.288897 191.722582 111.288897 189.793165 123.527132 197.852353 123.527132 199.78177 111.288897 212.44762 111.288897 206.718667 147.618676 194.053915 147.618676 196.04373 134.994412 187.984542 134.994412 185.993629 147.618676 173.328877 147.618676"></polygon>
                <polygon id="Stroke-165" points="179.05783 111.288897 191.722582 111.288897 189.793165 123.527132 197.852353 123.527132 199.78177 111.288897 212.44762 111.288897 206.718667 147.618676 194.053915 147.618676 196.04373 134.994412 187.984542 134.994412 185.993629 147.618676 173.328877 147.618676"></polygon>
                <path d="M223.543911,129.742647 C222.890523,133.886397 225.22515,136.728676 229.206976,136.728676 C233.188801,136.728676 236.419504,133.886397 237.072893,129.742647 C237.680159,125.887868 235.598102,122.659559 231.425202,122.659559 C227.251203,122.659559 224.152276,125.887868 223.543911,129.742647 M250.343813,129.549632 C248.504443,141.209926 238.432379,148.197059 227.398353,148.197059 C216.364326,148.197059 208.495115,141.209926 210.334485,129.549632 C212.134323,118.130882 222.323887,110.710294 233.309595,110.710294 C244.295304,110.710294 252.143651,118.130882 250.343813,129.549632" id="Fill-167" fill="#0060A9"></path>
                <path d="M223.543911,129.742647 C222.890523,133.886397 225.22515,136.728676 229.206976,136.728676 C233.188801,136.728676 236.419504,133.886397 237.072893,129.742647 C237.680159,125.887868 235.598102,122.659559 231.425202,122.659559 C227.251203,122.659559 224.152276,125.887868 223.543911,129.742647 L223.543911,129.742647 Z M250.343813,129.549632 C248.504443,141.209926 238.432379,148.197059 227.398353,148.197059 C216.364326,148.197059 208.495115,141.209926 210.334485,129.549632 C212.134323,118.130882 222.323887,110.710294 233.309595,110.710294 C244.295304,110.710294 252.143651,118.130882 250.343813,129.549632 L250.343813,129.549632 Z" id="Stroke-169"></path>
                <polygon id="Fill-171" fill="#0060A9" points="252.502301 111.288897 280.134587 111.288897 278.273254 123.093676 271.082688 122.756176 267.162358 147.618676 254.017722 147.618676 257.938052 122.756176 250.640968 123.093676"></polygon>
                <polygon id="Stroke-173" points="252.502301 111.288897 280.134587 111.288897 278.273254 123.093676 271.082688 122.756176 267.162358 147.618676 254.017722 147.618676 257.938052 122.756176 250.640968 123.093676"></polygon>
                <path d="M290.704214,129.742647 C290.050825,133.886397 292.385453,136.728676 296.367279,136.728676 C300.349104,136.728676 303.579807,133.886397 304.233196,129.742647 C304.840462,125.887868 302.759503,122.659559 298.586603,122.659559 C294.412604,122.659559 291.312579,125.887868 290.704214,129.742647 M317.504116,129.549632 C315.664746,141.209926 305.592682,148.197059 294.558656,148.197059 C283.525727,148.197059 275.656516,141.209926 277.494788,129.549632 C279.294626,118.130882 289.48419,110.710294 300.470997,110.710294 C311.455607,110.710294 319.305052,118.130882 317.504116,129.549632" id="Fill-175" fill="#0060A9"></path>
                <path d="M290.704214,129.742647 C290.050825,133.886397 292.385453,136.728676 296.367279,136.728676 C300.349104,136.728676 303.579807,133.886397 304.233196,129.742647 C304.840462,125.887868 302.759503,122.659559 298.586603,122.659559 C294.412604,122.659559 291.312579,125.887868 290.704214,129.742647 L290.704214,129.742647 Z M317.504116,129.549632 C315.664746,141.209926 305.592682,148.197059 294.558656,148.197059 C283.525727,148.197059 275.656516,141.209926 277.494788,129.549632 C279.294626,118.130882 289.48419,110.710294 300.470997,110.710294 C311.455607,110.710294 319.305052,118.130882 317.504116,129.549632 L317.504116,129.549632 Z" id="Stroke-177"></path>
                <path d="M360.84847,126.032684 C359.048632,124.057316 356.676668,122.370919 353.702927,122.370919 C349.768322,122.370919 346.061029,125.503272 345.438389,129.454007 C344.808061,133.453272 347.726895,136.535993 351.660403,136.535993 C354.683559,136.535993 357.287229,135.235625 359.725081,133.163199 L357.19828,146.751434 C354.927344,147.762831 349.965985,148.19739 347.614886,148.19739 C337.301233,148.19739 330.510387,140.150331 332.143309,129.791507 C333.815764,119.190037 343.451869,110.710625 354.054329,110.710625 C357.02807,110.710625 360.014988,111.240037 362.646111,112.204007 L360.84847,126.032684 Z" id="Fill-179" fill="#0060A9"></path>
                <path d="M360.84847,126.032684 C359.048632,124.057316 356.676668,122.370919 353.702927,122.370919 C349.768322,122.370919 346.061029,125.503272 345.438389,129.454007 C344.808061,133.453272 347.726895,136.535993 351.660403,136.535993 C354.683559,136.535993 357.287229,135.235625 359.725081,133.163199 L357.19828,146.751434 C354.927344,147.762831 349.965985,148.19739 347.614886,148.19739 C337.301233,148.19739 330.510387,140.150331 332.143309,129.791507 C333.815764,119.190037 343.451869,110.710625 354.054329,110.710625 C357.02807,110.710625 360.014988,111.240037 362.646111,112.204007 L360.84847,126.032684 L360.84847,126.032684 Z" id="Stroke-181"></path>
                <polygon id="Fill-183" fill="#0060A9" points="365.71495 111.288897 390.037468 111.288897 388.47263 121.214265 377.391384 121.214265 376.844514 124.683015 386.967091 124.683015 385.476927 134.1275 375.354349 134.1275 374.793204 137.692206 386.257698 137.692206 384.692861 147.618676 359.985997 147.618676"></polygon>
                <polygon id="Stroke-185" points="365.71495 111.288897 390.037468 111.288897 388.47263 121.214265 377.391384 121.214265 376.844514 124.683015 386.967091 124.683015 385.476927 134.1275 375.354349 134.1275 374.793204 137.692206 386.257698 137.692206 384.692861 147.618676 359.985997 147.618676"></polygon>
                <path d="M393.731253,111.288897 L406.347687,111.288897 L414.973511,131.428603 L415.356759,131.428603 C415.307343,128.393309 415.226081,125.260956 415.712554,122.178235 L417.430032,111.288897 L429.998148,111.288897 L424.270294,147.618676 L411.699981,147.618676 L403.147732,128.537794 L402.764484,128.537794 C402.800722,131.043676 402.812801,133.405074 402.432848,135.813897 L400.570417,147.618676 L388.0023,147.618676 L393.731253,111.288897 Z" id="Fill-187" fill="#0060A9"></path>
                <path d="M393.731253,111.288897 L406.347687,111.288897 L414.973511,131.428603 L415.356759,131.428603 C415.307343,128.393309 415.226081,125.260956 415.712554,122.178235 L417.430032,111.288897 L429.998148,111.288897 L424.270294,147.618676 L411.699981,147.618676 L403.147732,128.537794 L402.764484,128.537794 C402.800722,131.043676 402.812801,133.405074 402.432848,135.813897 L400.570417,147.618676 L388.0023,147.618676 L393.731253,111.288897 L393.731253,111.288897 Z" id="Stroke-189"></path>
                <polygon id="Fill-191" fill="#0060A9" points="432.30104 111.288897 459.932228 111.288897 458.071993 123.093676 450.880329 122.756176 446.961097 147.618676 433.815364 147.618676 437.735693 122.756176 430.439707 123.093676"></polygon>
                <polygon id="Stroke-193" points="432.30104 111.288897 459.932228 111.288897 458.071993 123.093676 450.880329 122.756176 446.961097 147.618676 433.815364 147.618676 437.735693 122.756176 430.439707 123.093676"></polygon>
                <polygon id="Fill-195" fill="#0060A9" points="462.234681 111.288897 486.557198 111.288897 484.992361 121.214265 473.910016 121.214265 473.363147 124.683015 483.485724 124.683015 481.996658 134.1275 471.87408 134.1275 471.311837 137.692206 482.777429 137.692206 481.211493 147.618676 456.505728 147.618676"></polygon>
                <polygon id="Stroke-197" points="462.234681 111.288897 486.557198 111.288897 484.992361 121.214265 473.910016 121.214265 473.363147 124.683015 483.485724 124.683015 481.996658 134.1275 471.87408 134.1275 471.311837 137.692206 482.777429 137.692206 481.211493 147.618676 456.505728 147.618676"></polygon>
                <path d="M500.761531,127.381691 L501.67298,127.381691 C503.831907,127.381691 506.043544,127.044191 506.468521,124.346397 C506.90997,121.551544 504.997025,121.214044 502.741462,121.214044 L501.734475,121.214044 L500.761531,127.381691 Z M490.442388,111.288676 L506.320273,111.288676 C514.476097,111.288676 520.837573,114.757426 519.394628,123.912941 C518.528202,129.405588 516.053014,131.718456 510.90058,133.356324 L510.854459,133.645294 C511.444155,134.175809 512.167824,134.75375 512.720184,135.813676 L518.725866,147.618456 L503.567257,147.618456 L499.648025,135.958162 L499.409731,135.958162 L497.57036,147.618456 L484.713435,147.618456 L490.442388,111.288676 Z" id="Fill-199" fill="#0060A9"></path>
                <path d="M500.761531,127.381691 L501.67298,127.381691 C503.831907,127.381691 506.043544,127.044191 506.468521,124.346397 C506.90997,121.551544 504.997025,121.214044 502.741462,121.214044 L501.734475,121.214044 L500.761531,127.381691 L500.761531,127.381691 Z M490.442388,111.288676 L506.320273,111.288676 C514.476097,111.288676 520.837573,114.757426 519.394628,123.912941 C518.528202,129.405588 516.053014,131.718456 510.90058,133.356324 L510.854459,133.645294 C511.444155,134.175809 512.167824,134.75375 512.720184,135.813676 L518.725866,147.618456 L503.567257,147.618456 L499.648025,135.958162 L499.409731,135.958162 L497.57036,147.618456 L484.713435,147.618456 L490.442388,111.288676 L490.442388,111.288676 Z" id="Stroke-201"></path>
            </g>
        </g>
    </g>
</svg>